PathFileType	4	(X/Y/Z)	C:\Users\israe\Desktop\Doctoral Research\Projects\PhaseIA\OPENSIM_october\ExperimentalData\subject1\100\P1S100W01.trc
DataRate	CameraRate	NumFrames	NumMarkers	Units	OrigDataRate	OrigDataStartFrame	OrigNumFrames
100.000000	100.000000	3	136	mm	100.000000	123	246
Frame#	Time	PELVIS_cgm24O			PELVIS_cgm24A			PELVIS_cgm24L			PELVIS_cgm24P			LFEMUR_cgm24O			LFEMUR_cgm24A			LFEMUR_cgm24L			LFEMUR_cgm24P			LTIBIA_cgm24O			LTIBIA_cgm24A			LTIBIA_cgm24L			LTIBIA_cgm24P			LFOOT_cgm24O			LFOOT_cgm24A			LFOOT_cgm24L			LFOOT_cgm24P			LTOES_cgm24O			LTOES_cgm24A			LTOES_cgm24L			LTOES_cgm24P			RFEMUR_cgm24O			RFEMUR_cgm24A			RFEMUR_cgm24L			RFEMUR_cgm24P			RTIBIA_cgm24O			RTIBIA_cgm24A			RTIBIA_cgm24L			RTIBIA_cgm24P			RFOOT_cgm24O			RFOOT_cgm24A			RFOOT_cgm24L			RFOOT_cgm24P			RTOES_cgm24O			RTOES_cgm24A			RTOES_cgm24L			RTOES_cgm24P			THORAX_cgm24O			THORAX_cgm24A			THORAX_cgm24L			THORAX_cgm24P			LUPPERARM_cgm24O			LUPPERARM_cgm24A			LUPPERARM_cgm24L			LUPPERARM_cgm24P			LFOREARM_cgm24O			LFOREARM_cgm24A			LFOREARM_cgm24L			LFOREARM_cgm24P			LHAND_cgm24O			LHAND_cgm24A			LHAND_cgm24L			LHAND_cgm24P			RUPPERARM_cgm24O			RUPPERARM_cgm24A			RUPPERARM_cgm24L			RUPPERARM_cgm24P			RFOREARM_cgm24O			RFOREARM_cgm24A			RFOREARM_cgm24L			RFOREARM_cgm24P			RHAND_cgm24O			RHAND_cgm24A			RHAND_cgm24L			RHAND_cgm24P			HEAD_cgm24O			HEAD_cgm24A			HEAD_cgm24L			HEAD_cgm24P			LFHD			RFHD			LBHD			RBHD			C7			T10			CLAV			STRN			RBAK			LSHO			LELB			LFRM			LWRA			LWRB			LFIN			RSHO			RELB			RFRM			RWRA			RWRB			RFIN			LASI			RASI			LPSI			RPSI			LTHI			LTHAP			LTHAD			LKNE			LTIB			LTIAP			LTIAD			LANK			LHEE			LTOE			LFMH			LVMH			RTHI			RTHAP			RTHAD			RKNE			RTIB			RTIAP			RTIAD			RANK			RHEE			RTOE			RFMH			RVMH			RPel			LPel			LMEL			RMEL			LHJC_cgm24			RHJC_cgm24			LKJC_cgm24			RKJC_cgm24			LAJC_cgm24			RAJC_cgm24			LFJC_cgm24			RFJC_cgm24			LSJC_cgm24			RSJC_cgm24			LEJC_cgm24			REJC_cgm24			LHO_cgm24			RHO_cgm24			CentreOfMass_cgm24			
		X1	Y1	Z1	X2	Y2	Z2	X3	Y3	Z3	X4	Y4	Z4	X5	Y5	Z5	X6	Y6	Z6	X7	Y7	Z7	X8	Y8	Z8	X9	Y9	Z9	X10	Y10	Z10	X11	Y11	Z11	X12	Y12	Z12	X13	Y13	Z13	X14	Y14	Z14	X15	Y15	Z15	X16	Y16	Z16	X17	Y17	Z17	X18	Y18	Z18	X19	Y19	Z19	X20	Y20	Z20	X21	Y21	Z21	X22	Y22	Z22	X23	Y23	Z23	X24	Y24	Z24	X25	Y25	Z25	X26	Y26	Z26	X27	Y27	Z27	X28	Y28	Z28	X29	Y29	Z29	X30	Y30	Z30	X31	Y31	Z31	X32	Y32	Z32	X33	Y33	Z33	X34	Y34	Z34	X35	Y35	Z35	X36	Y36	Z36	X37	Y37	Z37	X38	Y38	Z38	X39	Y39	Z39	X40	Y40	Z40	X41	Y41	Z41	X42	Y42	Z42	X43	Y43	Z43	X44	Y44	Z44	X45	Y45	Z45	X46	Y46	Z46	X47	Y47	Z47	X48	Y48	Z48	X49	Y49	Z49	X50	Y50	Z50	X51	Y51	Z51	X52	Y52	Z52	X53	Y53	Z53	X54	Y54	Z54	X55	Y55	Z55	X56	Y56	Z56	X57	Y57	Z57	X58	Y58	Z58	X59	Y59	Z59	X60	Y60	Z60	X61	Y61	Z61	X62	Y62	Z62	X63	Y63	Z63	X64	Y64	Z64	X65	Y65	Z65	X66	Y66	Z66	X67	Y67	Z67	X68	Y68	Z68	X69	Y69	Z69	X70	Y70	Z70	X71	Y71	Z71	X72	Y72	Z72	X73	Y73	Z73	X74	Y74	Z74	X75	Y75	Z75	X76	Y76	Z76	X77	Y77	Z77	X78	Y78	Z78	X79	Y79	Z79	X80	Y80	Z80	X81	Y81	Z81	X82	Y82	Z82	X83	Y83	Z83	X84	Y84	Z84	X85	Y85	Z85	X86	Y86	Z86	X87	Y87	Z87	X88	Y88	Z88	X89	Y89	Z89	X90	Y90	Z90	X91	Y91	Z91	X92	Y92	Z92	X93	Y93	Z93	X94	Y94	Z94	X95	Y95	Z95	X96	Y96	Z96	X97	Y97	Z97	X98	Y98	Z98	X99	Y99	Z99	X100	Y100	Z100	X101	Y101	Z101	X102	Y102	Z102	X103	Y103	Z103	X104	Y104	Z104	X105	Y105	Z105	X106	Y106	Z106	X107	Y107	Z107	X108	Y108	Z108	X109	Y109	Z109	X110	Y110	Z110	X111	Y111	Z111	X112	Y112	Z112	X113	Y113	Z113	X114	Y114	Z114	X115	Y115	Z115	X116	Y116	Z116	X117	Y117	Z117	X118	Y118	Z118	X119	Y119	Z119	X120	Y120	Z120	X121	Y121	Z121	X122	Y122	Z122	X123	Y123	Z123	X124	Y124	Z124	X125	Y125	Z125	X126	Y126	Z126	X127	Y127	Z127	X128	Y128	Z128	X129	Y129	Z129	X130	Y130	Z130	X131	Y131	Z131	X132	Y132	Z132	X133	Y133	Z133	X134	Y134	Z134	X135	Y135	Z135	X136	Y136	Z136	

124	1.23	233.8809967041016	867.4739990234375	203.0959930419922	225.6720123291016	853.42822265625	373.9863281250001	405.3466796875	867.3638305664063	211.3235473632813	233.3174896240234	1038.561279296875	217.1309204101563	311.1310119628906	481.8169860839844	372.1589965820313	292.16748046875	646.6380004882813	757.657470703125	730.3009033203125	481.4790649414063	392.9234008789063	319.5961608886719	867.781494140625	207.5551452636719	294.4840087890625	98.71369934082028	463.1449890136719	358.9508972167969	185.9009857177734	842.0458984375	682.9301147460938	67.82614135742185	404.1614379882813	311.130859375	481.8165893554688	372.1584777832032	285.739990234375	60.06660079956053	391.7900085449219	297.7415161132813	278.2688598632813	339.6029663085938	509.7543640136719	45.52828216552732	382.5198974609375	273.360107421875	8.528656005859364	173.4546661376953	298.1180114746094	93.1961975097656	529.4310302734375	298.1180114746094	93.1961975097656	529.4310302734375	298.1180114746094	93.1961975097656	529.4310302734375	298.1180114746094	93.1961975097656	529.4310302734375	156.4490051269531	465.2529907226563	84.63919830322268	191.9199523925781	352.3216857910156	485.3722229003906	572.7083740234375	482.8735961914063	52.75963211059573	148.1662292480469	867.166748046875	198.6363830566407	180.8300018310547	157.8849945068359	-170.7129974365234	114.0382385253906	-97.47808837890626	130.2904510498047	574.808349609375	133.6144104003906	-103.8808822631836	156.4485931396484	465.2530517578125	84.63954162597659	192.3200073242188	170.2070007324219	-249.7440032958984	189.7598419189453	366.9966735839844	-139.3165283203125	412.4511108398438	148.0985260009766	-205.2415618896484	241.9455718994141	278.4289855957031	-441.4527893066406	165.0010070800781	105.3219985961914	-125.39599609375	165.0010070800781	105.3219985961914	-125.39599609375	165.0010070800781	105.3219985961914	-125.39599609375	165.0010070800781	105.3219985961914	-125.39599609375	254.5790100097656	1395.130004882813	240.7960052490235	262.0385131835938	1449.159301757813	709.6119384765626	-217.3001708984375	1402.07666015625	247.5036773681641	248.44677734375	926.30615234375	294.9238281250001	475.3890075683594	1096.75	120.5350036621094	427.1690063476563	1145.427490234375	-143.1999511718749	208.23046875	1064.557861328125	163.4392547607422	451.8955688476563	1362.917114257813	173.9567871093751	518.3389892578125	846.8619995117188	200.4810028076172	488.28271484375	761.2760009765625	-50.89088439941401	256.3296813964844	815.2904663085938	242.5585327148438	475.1660461425781	1098.048095703125	120.1204299926759	513.2160034179688	778.010986328125	218.8240051269532	626.6263427734375	794.3941650390625	311.9934082031251	607.2200317382813	742.2073974609375	110.6935195922852	523.8079833984375	920.3505249023438	180.9014739990235	-9.795120239257813	1098.510009765625	174.2500000000001	-40.45305633544922	1106.202270507813	-91.27529907226555	-267.8463745117188	1161.066284179688	205.8572235107423	53.23184204101563	1358.375854492188	174.5011138916016	-32.96189880371094	906.6950073242188	364.7460021972657	-100.4807052612305	724.8419189453125	173.4228057861329	-295.895263671875	970.4349975585938	396.9513549804688	-9.698579788208008	1099.31005859375	173.4552307128907	-43.66839981079102	853.2529907226563	420.1390075683594	-138.2051391601563	958.2639770507813	503.1796875000001	88.29078674316406	909.1983032226563	499.6195373535157	-21.08880996704102	965.9608764648438	303.3171386718751	236.5279998779297	1650.4599609375	170.3710021972657	235.1475067138672	1664.670166015625	221.9563446044923	289.730224609375	1656.322631835938	170.1797790527345	230.8270111083984	1701.729614257813	156.0951995849611	305.9341735839844	1672.916381835938	216.9349517822267	164.0270690917969	1659.133178710938	217.4110107421876	328.5270690917969	1645.576171875	122.6290359497071	147.6227874755859	1624.202880859375	124.5090332031251	250.9127655029297	1480.02197265625	114.8825225830079	248.3167114257813	1120.599487304688	84.69847106933601	254.6504516601563	1395.652465820313	245.2655792236329	250.4222717285156	1233.552490234375	335.6647338867188	128.6446685791016	1322.8193359375	63.6835136413575	452.5896301269531	1414.904907226563	169.3510284423829	510.2923583984375	1097.373168945313	132.8000183105469	523.1099243164063	967.2416381835938	200.9749908447266	507.4668884277344	847.6691284179688	223.0438842773438	536.0886840820313	848.999267578125	182.9215087890626	524.3507690429688	779.620361328125	227.9717864990235	51.84950637817383	1406.13623046875	167.3298645019532	-42.50761795043945	1106.428466796875	189.6178894042969	-48.25718307495117	1009.517883300781	301.9845275878907	-11.53197860717773	919.6766357421875	381.6041870117188	-59.61958694458008	899.2826538085938	352.6477355957032	-52.03240966796875	862.54443359375	427.4863891601563	349.9932861328125	939.317138671875	270.6559448242188	110.9272766113281	943.2783813476563	260.3249511718751	279.4579162597656	951.4776611328125	88.33266448974615	203.9113922119141	957.9133911132813	86.63378143310553	394.893798828125	645.871337890625	301.9977416992188	339.004638671875	760.524658203125	359.9746704101563	329.3858947753906	666.89404296875	392.4302673339844	362.7996215820313	482.8612060546875	372.8987426757813	362.1583862304688	305.0448303222656	416.0986633300781	311.5161743164063	370.6761474609375	455.7210693359375	309.7170715332031	267.2972412109374	473.6687927246094	332.509033203125	91.82173156738278	454.2343139648438	286.4328308105469	66.75067901611325	393.439453125	303.7911071777344	106.3957366943359	552.4351806640625	280.9703063964844	96.93494415283199	607.7215576171875	365.5870666503906	65.69649505615232	574.162109375	62.4130744934082	690.501220703125	153.9537963867188	115.3955154418945	735.0423583984375	260.2716369628907	130.1909484863281	639.6765747070313	234.2031707763672	106.3345489501953	473.9167785644531	89.22874450683597	114.2088241577148	295.5040283203125	-43.00746536254881	150.7444610595703	329.70947265625	46.97595596313479	160.57421875	228.0102386474609	-47.47936248779295	141.6293792724609	157.2853240966797	-177.5208892822266	191.6334533691406	162.6574249267578	-251.3809814453125	162.8506774902344	81.70548248291016	-103.7064590454102	191.4068450927734	46.80792236328126	-80.60475921630859	107.2307205200195	53.19386672973634	-124.8369979858398	64.2978515625	968.0055541992188	157.9362792968751	408.8328857421875	957.8502807617188	180.3575592041016	444.0892028808594	1086.805541992188	130.8599090576172	17.64050102233887	1078.760620117188	173.2814331054688	319.5960083007813	867.781982421875	207.5549926757813	148.1660003662109	867.166015625	198.6360015869141	311.1310119628906	481.8169860839844	372.1589965820313	156.4490051269531	465.2529907226563	84.63919830322268	294.4840087890625	98.71369934082028	463.1449890136719	180.8300018310547	157.8849945068359	-170.7129974365234	298.1180114746094	93.1961975097656	529.4310302734375	165.0010070800781	105.3219985961914	-125.39599609375	450.8250122070313	1375.06005859375	176.3930053710938	55.18280029296875	1366.420043945313	174.5079956054688	475.3890075683594	1096.75	120.5350036621094	-9.795120239257813	1098.510009765625	174.2500000000001	513.2160034179688	778.010986328125	218.8240051269532	-43.66839981079102	853.2529907226563	420.1390075683594	242.2850036621094	978.3209838867188	190.5130004882813	
125	1.24	235.906005859375	868.1699829101563	218.3339996337891	227.5435333251953	854.7850341796875	389.2699279785157	407.3565673828125	869.2360229492188	226.8051147460938	234.1839752197266	1039.307006835938	231.6504364013672	312.4679870605469	482.6380004882813	386.3880004882813	290.6241149902344	646.367919921875	772.1988525390625	731.4833984375	482.7425537109375	410.0674743652344	321.60986328125	869.0667114257813	222.9134979248047	294.6589965820313	97.11289978027341	466.2439880371094	356.6319885253906	173.3085327148437	847.920654296875	683.4593505859375	67.3091125488281	409.0641784667969	312.4675598144531	482.6377563476563	386.3885498046876	286.4010009765625	61.20149993896482	393.4169921875	299.4533081054688	281.1721801757813	349.5730895996094	510.4521179199219	46.35702514648435	385.6402587890625	275.890380859375	17.93150711059569	173.1967010498047	297.6709899902344	89.10050201416013	532.3060302734375	297.6709899902344	89.10050201416013	532.3060302734375	297.6709899902344	89.10050201416013	532.3060302734375	297.6709899902344	89.10050201416013	532.3060302734375	156.2089996337891	463.2690124511719	107.2490005493164	191.8756561279297	357.6369018554687	509.9503173828125	572.4906616210938	478.1493530273438	74.28279876708987	150.2019653320313	867.2728271484375	213.7547760009766	179.4120025634766	165.177001953125	-158.9779968261719	109.4323577880859	-100.4095153808594	132.2970581054688	572.9077758789063	135.5230407714844	-91.47821807861327	156.2079925537109	463.2691345214844	107.2496032714844	191.2149963378906	183.1490020751953	-236.8719940185547	187.67138671875	371.4124755859375	-112.4885482788086	411.4542846679688	158.9753723144531	-194.0089569091797	240.2970123291016	305.2122192382813	-420.225341796875	163.8470001220703	109.3939971923828	-117.5910034179688	163.8470001220703	109.3939971923828	-117.5910034179688	163.8470001220703	109.3939971923828	-117.5910034179688	163.8470001220703	109.3939971923828	-117.5910034179688	256.0669860839844	1395.81005859375	254.5570068359376	263.2617797851563	1451.069458007813	723.2337036132814	-215.811767578125	1403.07958984375	260.9439697265626	249.5961303710938	927.1344604492188	309.9155578613282	476.6260070800781	1096.660034179688	136.0639953613282	429.1803283691406	1143.999267578125	-128.0547180175781	209.3081665039063	1065.073852539063	178.4230194091797	453.3692016601563	1363.140991210938	188.0044097900391	519.0009765625	847.0980224609375	217.3890075683594	489.4829406738281	760.286376953125	-33.62606811523433	256.83544921875	816.1205444335938	258.9316101074219	476.4089965820313	1097.937255859375	135.6467590332032	513.7459716796875	778.3729858398438	236.0800018310547	626.8993530273438	795.128173828125	329.4953613281251	608.0280151367188	741.8853149414063	128.4212799072266	524.6114501953125	920.495361328125	197.4273681640626	-7.474289894104004	1098.969970703125	186.8399963378907	-36.53749847412109	1107.209594726563	-78.84817504882805	-265.9039611816406	1160.661865234375	217.022430419922	54.75275802612305	1359.025634765625	188.0980682373048	-31.81410217285156	905.0180053710938	374.8779907226563	-97.38267517089844	725.2293090820313	180.9431915283204	-295.1331176757813	967.8770141601563	405.6311950683594	-7.364690780639648	1099.847900390625	185.9932403564454	-42.75120162963867	850.7150268554688	429.2699890136719	-137.560546875	954.370849609375	513.6909790039064	88.92387390136719	905.248046875	510.1901855468751	-19.66192626953125	965.3529663085938	314.4428710937501	238.3280029296875	1651	183.6000061035157	236.9582672119141	1665.303588867188	235.1598205566407	291.5367126464844	1656.803100585938	183.4036560058595	232.6854095458984	1702.25048828125	169.2323303222657	307.7515258789063	1673.468872070313	230.1338043212892	165.8335876464844	1659.8388671875	230.6144561767579	330.3288879394531	1645.940551757813	135.8771209716798	149.3954772949219	1624.75732421875	137.7758941650392	252.5058135986328	1480.424926757813	128.4652709960938	249.7310943603516	1120.886840820313	99.16792297363288	256.1356506347656	1396.340209960938	259.0260620117189	251.7174835205078	1234.516723632813	349.8989562988282	130.3051147460938	1323.263916015625	77.37289428710946	454.1341247558594	1415.120971679688	183.2292633056641	511.4929504394531	1097.287475585938	148.4294433593751	523.9229736328125	967.4671020507813	217.2283477783204	508.0624694824219	848.0425415039063	239.9075927734376	536.804931640625	849.1141357421875	199.8796539306641	524.8563842773438	780.0175170898438	245.2524719238282	53.3793830871582	1406.771118164063	180.8496856689454	-40.23846435546875	1106.738037109375	202.1758880615235	-46.71356582641602	1008.621337890625	313.3318481445313	-10.43381595611572	917.7393798828125	392.0035400390626	-58.43273544311523	897.8194580078125	362.5537414550782	-51.13925552368164	859.8856201171875	436.7386779785157	351.5180053710938	940.4151000976563	285.7302551269532	112.6563110351563	943.34228515625	274.8246765136719	281.1546325683594	952.07666015625	103.1608352661133	205.4737854003906	957.8695068359375	101.3004455566407	396.1661376953125	647.4630126953125	317.6241455078126	340.2632141113281	761.8985595703125	375.3740844726563	330.3792114257813	668.0979614257813	407.6543884277344	364.2294921875	483.4322204589844	386.7457580566407	362.9107971191406	304.3409423828125	425.6098937988281	312.0652770996094	368.9720764160156	466.2271423339844	309.8622436523438	265.0440673828124	481.6168823242188	332.8515930175781	90.46281433105466	457.2054138183594	287.0952758789063	68.01187896728513	394.9376220703125	303.2649230957031	101.74169921875	555.9544067382813	279.9154968261719	90.35189819335933	611.0694580078125	364.8307800292969	60.17754745483395	576.7518310546875	63.52488708496094	689.3213500976563	172.5359649658203	117.1174850463867	735.298583984375	277.1425170898438	130.9258422851563	639.6454467773438	253.3251647949219	105.8480758666992	471.952392578125	111.5263442993164	113.1479415893555	298.71875	-26.49356269836424	149.6674652099609	329.3236083984375	64.93190002441408	159.1532592773438	231.2955017089844	-33.44952392578124	139.9963836669922	165.6076965332031	-165.5706481933594	190.6138000488281	176.3969116210938	-237.6510620117188	161.813232421875	84.72022247314453	-97.32212829589844	190.9029693603516	47.96677017211915	-77.30641174316406	106.81689453125	57.06035995483399	-121.1497650146484	65.95522308349609	967.5748291015625	172.6682281494141	410.5229797363281	959.2186889648438	195.6947479248047	445.27490234375	1086.80908203125	146.2664642333985	20.0571403503418	1079.363403320313	186.0569305419922	321.6099853515625	869.0670166015625	222.9140014648438	150.2010040283203	867.2730102539063	213.7550048828126	312.4679870605469	482.6380004882813	386.3880004882813	156.2089996337891	463.2690124511719	107.2490005493164	294.6589965820313	97.11289978027341	466.2439880371094	179.4120025634766	165.177001953125	-158.9779968261719	297.6709899902344	89.10050201416013	532.3060302734375	163.8470001220703	109.3939971923828	-117.5910034179688	452.3080139160156	1375.300048828125	190.3750000000001	56.67589950561523	1367.069946289063	188.1369934082032	476.6260070800781	1096.660034179688	136.0639953613282	-7.474289894104004	1098.969970703125	186.8399963378907	513.7459716796875	778.3729858398438	236.0800018310547	-42.75120162963867	850.7150268554688	429.2699890136719	243.4739990234375	978.823974609375	204.9120025634766	
126	1.25	237.9620056152344	869.0889892578125	233.3489990234376	229.4415588378906	856.2798461914063	404.3212585449219	409.3893737792969	871.3196411132813	242.0592498779297	235.0903778076172	1040.258911132813	246.0298461914063	313.8659973144531	483.3940124511719	399.7059936523438	288.8600769042969	645.3472290039063	786.0743408203125	732.6900634765625	484.0164184570313	426.5515747070313	323.6524963378906	870.5701904296875	238.0475311279297	294.8659973144531	95.88520050048825	468.9880065917969	354.3753051757813	161.6238098144531	852.993896484375	683.9946899414063	66.91081237792966	413.6449890136719	313.8661499023438	483.3931579589844	399.7054443359376	287.0549926757813	62.41210174560545	394.9599914550781	301.0171813964844	283.6673583984375	358.4782104492188	511.1244506835938	47.20978546142576	388.5157470703125	278.2404479980469	26.42944717407225	173.3583068847656	297.3160095214844	85.69869995117185	534.7730102539063	297.3160095214844	85.69869995117185	534.7730102539063	297.3160095214844	85.69869995117185	534.7730102539063	297.3160095214844	85.69869995117185	534.7730102539063	155.9179992675781	461.3099975585938	131.1499938964844	191.5202789306641	364.4605102539062	536.0589599609375	572.2325439453125	473.1503295898438	97.3769226074219	152.2723236083984	867.608642578125	228.6524505615235	178.02099609375	172.9440002441406	-145.6730041503906	104.5202713012695	-102.5057983398438	135.3955688476563	570.937744140625	137.6390533447266	-77.52264404296874	155.9177398681641	461.3108825683594	131.1491088867188	190.0639953613281	196.697998046875	-221.9640045166016	185.1741333007813	375.0745849609375	-83.81608581542966	410.4690551757813	170.9453125	-180.9107055664063	238.2787780761719	332.512451171875	-395.6209716796875	162.8529968261719	114.1039962768555	-108.5930023193359	162.8529968261719	114.1039962768555	-108.5930023193359	162.8529968261719	114.1039962768555	-108.5930023193359	162.8529968261719	114.1039962768555	-108.5930023193359	257.4979858398438	1396.77001953125	268.2739868164064	264.2336120605469	1453.15625	736.8233642578126	-214.3834228515625	1404.295288085938	274.1518554687501	250.7296600341797	928.2327270507813	324.7560424804688	477.9030151367188	1096.849975585938	151.7089996337891	431.5679626464844	1142.796630859375	-112.8524627685546	210.3764343261719	1065.859741210938	193.1812591552735	454.8074951171875	1363.64453125	202.0883941650391	519.6190185546875	847.68798828125	234.6219940185547	490.9816589355469	759.4926147460938	-16.01245117187495	257.2488403320313	817.2951049804688	275.2951660156251	477.6912841796875	1098.115600585938	151.2900695800782	514.2109985351563	779.1079711914063	253.7050018310547	627.0028076171875	796.3065795898438	347.4764099121094	608.8877563476563	741.85302734375	146.6571655273438	525.3994750976563	920.9780883789063	214.2266540527344	-5.137919902801514	1099.7099609375	199.1900024414063	-32.50660705566406	1108.614624023438	-66.65661621093743	-263.9560546875	1160.482788085938	227.8707275390626	56.23699188232422	1359.960083007813	201.5886993408204	-30.66640090942383	903.4910278320313	384.5989990234376	-94.15263366699219	725.9279174804688	187.9400024414063	-294.3811950683594	965.4136962890625	413.8225402832032	-5.016178131103516	1100.64794921875	198.3058471679688	-41.80059814453125	848.260986328125	437.9110107421876	-136.9245300292969	950.380859375	523.8367919921876	89.57003784179688	901.3069458007813	520.3012084960938	-18.27482986450195	964.9569091796875	325.2661132812501	240.0899963378906	1651.819946289063	196.8200073242189	238.7256469726563	1666.214233398438	248.3547210693361	293.3049926757813	1657.5654296875	196.6240692138673	234.5054626464844	1703.051513671875	182.362518310547	309.5280456542969	1674.289916992188	243.3301544189454	167.5993804931641	1660.818603515625	243.8007812500001	332.0987548828125	1646.578247070313	149.1242828369142	151.1351776123047	1625.591430664063	151.0230102539064	254.0746002197266	1481.10791015625	142.0212554931641	251.1816253662109	1121.47705078125	113.5383224487305	257.5615844726563	1397.305541992188	272.7405395507814	252.9279479980469	1235.756958007813	364.0501403808594	131.9685821533203	1324.027587890625	90.97660827636727	455.6405944824219	1415.638671875	197.1498565673829	512.7237548828125	1097.505004882813	164.2012023925782	524.6902465820313	968.0315551757813	233.7271270751954	508.5920715332031	848.78515625	257.0811462402344	537.496337890625	849.5708618164063	217.1825408935547	525.2854614257813	780.7965698242188	262.9116516113282	54.87453079223633	1407.691040039063	194.2762756347657	-37.95730209350586	1107.307983398438	214.4921569824219	-45.17325210571289	1007.91162109375	324.3553161621094	-9.337742805480957	915.9363403320313	402.0028076171876	-57.24498748779297	896.5156860351563	372.0430603027344	-50.21647262573242	857.2964477539063	445.5128784179688	353.0722961425781	941.7969360351563	300.6287231445313	114.4160308837891	943.7160034179688	289.1624450683594	282.8778686523438	952.9882202148438	117.8364334106446	207.045654296875	958.1116943359375	115.8156967163087	397.5333862304688	649.1204833984375	332.6053161621094	341.4757080078125	763.2437744140625	390.3087463378907	331.3426513671875	669.1979370117188	422.2419433593751	365.679443359375	484.0342712402344	399.7983398437501	363.7217712402344	303.7724609375	434.4319763183594	312.6571044921875	367.3910522460937	476.0285034179688	310.0878295898438	263.0453491210937	488.9292297363281	333.2137756347656	89.47760009765622	459.8555603027344	287.739501953125	69.24455261230466	396.267333984375	302.830078125	97.78298187255857	559.0475463867188	278.9887084960938	84.69043731689449	613.9435424804688	364.2173156738281	55.59099578857418	578.9871826171875	64.56806182861328	688.3392333984375	191.5272827148438	118.8718185424805	735.958984375	294.2006225585938	131.6294250488281	640.0326538085938	272.9201965332032	105.2716827392578	470.1566162109375	134.9088745117188	112.0507659912109	302.1867370605469	-8.63796138763426	148.5668334960938	329.2249450683594	84.09804534912111	157.738037109375	234.9443359375	-18.01107788085936	138.4055480957031	174.4760131835938	-151.9908752441406	189.5873107910156	190.808837890625	-221.9534149169922	160.8291625976563	88.53632354736328	-89.52601623535156	190.4613800048828	49.90493392944337	-72.77891540527344	106.3920516967773	61.85316467285157	-116.0200958251953	67.65886688232422	967.42578125	187.2022247314454	412.2328491210938	960.9051513671875	210.8660888671876	446.4897155761719	1087.106201171875	161.7667846679688	22.48869514465332	1080.255004882813	198.5862274169922	323.6520080566406	870.5700073242188	238.0469970703126	152.2720031738281	867.6079711914063	228.6519927978516	313.8659973144531	483.3940124511719	399.7059936523438	155.9179992675781	461.3099975585938	131.1499938964844	294.8659973144531	95.88520050048825	468.9880065917969	178.02099609375	172.9440002441406	-145.6730041503906	297.3160095214844	85.69869995117185	534.7730102539063	162.8529968261719	114.1039962768555	-108.5930023193359	453.7520141601563	1375.839965820313	204.3899993896485	58.13349914550781	1368	201.6629943847657	477.9030151367188	1096.849975585938	151.7089996337891	-5.137919902801514	1099.7099609375	199.1900024414063	514.2109985351563	779.1079711914063	253.7050018310547	-41.80059814453125	848.260986328125	437.9110107421876	244.6699981689453	979.5709838867188	219.2949981689454	
